<svg xmlns="http://www.w3.org/2000/svg" xmlns:xlink="http://www.w3.org/1999/xlink" width="64" height="64" viewBox="0 0 64 64">
  <defs>
    <style>
      .cls-1, .cls-5 {
        fill: #fff;
      }

      .cls-1 {
        stroke: #707070;
      }

      .cls-2 {
        clip-path: url(#clip-path);
      }

      .cls-3, .cls-4 {
        fill: #32519b;
      }

      .cls-4, .cls-5 {
        fill-rule: evenodd;
      }
    </style>
    <clipPath id="clip-path">
      <rect id="Rectangle_18914" data-name="Rectangle 18914" class="cls-1" width="64" height="64"/>
    </clipPath>
  </defs>
  <g id="eye" class="cls-2">
    <g id="svgexport-15_26_" data-name="svgexport-15 (26)" transform="translate(6.001 3)">
      <circle id="Ellipse_25" data-name="Ellipse 25" class="cls-3" cx="19" cy="19" r="19" transform="translate(6.998 9)"/>
      <g id="Group_41197" data-name="Group 41197" transform="translate(0 0)">
        <g id="Group_41196" data-name="Group 41196">
          <path id="Path_16167" data-name="Path 16167" class="cls-4" d="M72.175,35.778l.62,1.752,7.3-2.587-2.588-7.3-1.75.62.923,2.614a.74.74,0,0,1-.963.939A25.844,25.844,0,0,0,44.051,68.9l.464.8,1.609-.935-.469-.8A23.992,23.992,0,0,1,74.811,33.455a.741.741,0,0,1-.015,1.392Zm14.485,7.282.464.8A23.99,23.99,0,0,1,57.8,78.309a.739.739,0,0,1,0-1.382l2.769-1.075-.671-1.731-7.222,2.8,2.8,7.222,1.731-.672-.949-2.44a.744.744,0,0,1,.959-.961A25.843,25.843,0,0,0,88.73,42.926l-.464-.8Z" transform="translate(-40.55 -27.64)"/>
          <path id="Path_16168" data-name="Path 16168" class="cls-5" d="M313.154,201.762a23.941,23.941,0,0,0-11.384-7.7,10.018,10.018,0,0,1,0,15.4A23.941,23.941,0,0,0,313.154,201.762Z" transform="translate(-269.504 -173.503)"/>
        </g>
        <path id="Path_16169" data-name="Path 16169" class="cls-5" d="M197.608,195.723a8.554,8.554,0,1,0-8.554,8.553A8.564,8.564,0,0,0,197.608,195.723Zm-8.554-4.055A4.056,4.056,0,1,1,185,195.723a4.061,4.061,0,0,1,4.055-4.055Z" transform="translate(-163.213 -167.465)"/>
        <path id="Path_16170" data-name="Path 16170" class="cls-5" d="M125.96,201.762a2.572,2.572,0,1,0-2.572,2.574A2.577,2.577,0,0,0,125.96,201.762Zm-12.608,0a10.018,10.018,0,0,1,3.612-7.7,23.947,23.947,0,0,0-11.384,7.7,23.935,23.935,0,0,0,11.384,7.7A10.019,10.019,0,0,1,113.352,201.762Z" transform="translate(-97.547 -173.503)"/>
      </g>
    </g>
  </g>
</svg>
